<?xml version="1.0" standalone="no"?>
<!DOCTYPE svg PUBLIC "-//W3C//DTD SVG 20010904//EN"
 "http://www.w3.org/TR/2001/REC-SVG-20010904/DTD/svg10.dtd">
<svg version="1.0" xmlns="http://www.w3.org/2000/svg"
 width="160.000000pt" height="160.000000pt" viewBox="0 0 160.000000 160.000000"
 preserveAspectRatio="xMidYMid meet">
<metadata>
Created by potrace 1.14, written by Peter Selinger 2001-2017
</metadata>
<g transform="translate(0.000000,160.000000) scale(0.100000,-0.100000)"
fill="#000000" stroke="none">
<path d="M1270 1440 c-67 -12 -182 -59 -234 -97 -94 -68 -135 -157 -137 -297
0 -45 -4 -103 -8 -131 -6 -47 -7 -49 -19 -27 -14 25 -32 29 -32 7 0 -21 -2
-20 -74 29 -91 62 -161 86 -250 86 -135 0 -254 -54 -342 -154 -53 -61 -80
-113 -133 -263 -38 -108 -40 -141 -6 -89 28 42 77 59 140 47 100 -19 189 16
331 128 127 102 197 135 287 135 85 1 86 0 112 -133 27 -131 16 -340 -24 -491
-17 -63 -31 -125 -31 -137 0 -38 58 -56 94 -30 28 21 66 230 64 362 l-1 110
-6 -102 c-4 -61 -11 -107 -18 -115 -10 -10 -13 3 -13 65 0 100 -27 329 -46
385 -8 24 -21 57 -30 73 -8 17 -14 35 -12 41 10 30 92 -209 111 -322 3 -19 5
-16 5 10 2 49 -23 149 -57 230 l-29 68 24 36 c28 40 128 92 234 121 87 23 146
54 218 114 68 56 117 141 127 219 10 71 14 81 43 96 l27 14 -45 6 c-88 10
-226 14 -270 6z m-216 -137 c-16 -76 -26 -94 -44 -88 -12 4 -20 0 -23 -12 -3
-10 -5 -1 -6 20 0 20 4 37 9 37 6 0 10 8 10 17 0 21 28 53 47 53 9 0 12 -8 7
-27z m82 -85 c-65 -76 -148 -190 -142 -195 3 -3 21 6 39 20 23 17 34 21 34 12
0 -8 -13 -19 -29 -26 -43 -18 -78 -48 -78 -68 0 -22 -26 -58 -35 -49 -14 14
76 160 155 253 45 52 84 95 87 95 3 0 -11 -19 -31 -42z m124 -28 c0 -10 -131
-80 -151 -80 -16 0 28 48 66 71 32 20 85 26 85 9z m-261 -84 c2 -25 -18 13
-23 44 l-6 35 14 -35 c8 -19 15 -39 15 -44z m-622 -172 c2 -6 -11 -14 -29 -17
-18 -4 -44 -9 -57 -13 -38 -11 -21 19 20 33 39 14 61 13 66 -3z m83 -44 c-8
-5 -22 -9 -30 -9 -10 0 -8 3 5 9 27 12 43 12 25 0z m-163 -12 c-15 -5 -25 -13
-22 -17 6 -10 -63 -66 -93 -75 -36 -12 -26 11 21 45 23 17 41 33 39 37 -5 9
28 21 58 21 25 -1 25 -1 -3 -11z m153 -66 c0 -4 -11 -24 -25 -44 -14 -20 -25
-41 -25 -45 0 -13 -38 -34 -44 -24 -3 5 -3 23 0 41 5 22 9 28 15 18 5 -8 9 -8
9 -2 0 18 40 64 56 64 8 0 14 -3 14 -8z m-265 -52 c-16 -10 -44 -36 -63 -57
-23 -27 -28 -30 -16 -10 9 15 13 27 9 27 -15 0 21 34 50 46 44 19 54 17 20 -6z
m111 -48 c-14 -14 -16 -14 -16 -1 0 20 23 44 29 28 2 -6 -4 -18 -13 -27z"/>
</g>
</svg>
