<svg xmlns="http://www.w3.org/2000/svg" viewBox="0 0 998.99 169.95"><defs><style>.cls-1{fill:#55b648;}.cls-2{fill:#c8da2c;}.cls-3{fill:#23272b;}</style></defs><g id="Layer_2" data-name="Layer 2"><g id="Layer_1-2" data-name="Layer 1"><rect class="cls-1" x="-16.61" y="103.43" width="150.77" height="15.48" transform="translate(-61.39 74.12) rotate(-45)"/><polygon class="cls-2" points="135.25 55.35 135.25 34.69 114.59 34.69 114.59 19.21 150.73 19.21 150.73 55.35 135.25 55.35"/><path class="cls-1" d="M17.07,86.75A67.62,67.62,0,0,1,84.61,19.21h17.15V34.69H84.61A52.11,52.11,0,0,0,32.55,86.75v1.68L61.29,59.69l10.95,11L17.07,125.8Z"/><path class="cls-1" d="M44.15,152.87,99.31,97.71l11,10.94L81.51,137.39H83.2a52.11,52.11,0,0,0,52.05-52V68.19h15.48V85.34A67.6,67.6,0,0,1,83.2,152.87Z"/><path class="cls-1" d="M191.54,77.49q0-19.56,9.3-31.48t25.08-11.94q14,0,21.75,9.58l.94-8h20.57v82.12a36.34,36.34,0,0,1-5.06,19.39,32.54,32.54,0,0,1-14.25,12.56Q240.69,154,228.36,154a46.55,46.55,0,0,1-18.22-3.73q-8.87-3.74-13.42-9.62l10.05-13.81q8.47,9.49,20.57,9.5,9,0,14-4.83t5-13.7v-4.55q-7.84,8.86-20.64,8.87a30,30,0,0,1-24.77-12q-9.47-12-9.46-31.75Zm22.69,1.69q0,11.55,4.63,18.12a14.73,14.73,0,0,0,12.72,6.56q10.36,0,14.83-7.78V60.31q-4.54-7.79-14.68-7.79a14.81,14.81,0,0,0-12.83,6.69Q214.22,65.88,214.23,79.18Z"/><path class="cls-1" d="M330.32,56.92a61.47,61.47,0,0,0-8.16-.63q-12.89,0-16.88,8.71v55.59H282.59V35.64H304l.63,10.13q6.83-11.7,18.92-11.7a23.83,23.83,0,0,1,7.07,1Z"/><path class="cls-1" d="M330.86,77.33a50.41,50.41,0,0,1,4.86-22.53,35.63,35.63,0,0,1,14-15.31A40.86,40.86,0,0,1,371,34.07q17.19,0,28.07,10.52t12.13,28.58l.16,5.81q0,19.55-10.92,31.36t-29.28,11.82q-18.37,0-29.32-11.78t-10.95-32Zm22.68,1.61q0,12.11,4.56,18.52t13,6.4A15.06,15.06,0,0,0,384,97.53q4.62-6.33,4.63-20.24,0-11.88-4.63-18.4a15.08,15.08,0,0,0-13-6.53,14.81,14.81,0,0,0-12.87,6.49Q353.54,65.35,353.54,78.94Z"/><path class="cls-1" d="M495.15,89.73,506.3,35.64h21.91l-21.67,85h-19L471.45,67.12l-16.1,53.47H436.43L414.76,35.64h21.91l11.07,54,15.54-54h16.41Z"/><path class="cls-1" d="M566.6,14.76V35.64h14.52V52.29H566.6V94.68q0,4.71,1.8,6.75t6.91,2a35.8,35.8,0,0,0,6.67-.55v17.2a46.75,46.75,0,0,1-13.74,2q-23.87,0-24.33-24.1V52.29H531.5V35.64h12.41V14.76Z"/><path class="cls-1" d="M611.88,44.91q9-10.84,22.69-10.84,27.63,0,28,32.11v54.41H639.91V66.81q0-7.31-3.14-10.79t-10.45-3.5q-10,0-14.44,7.69v60.38H589.19V0h22.69Z"/><path class="cls-3" d="M724.36,97.51a8.65,8.65,0,0,0-4.2-7.78Q716,87.06,706.23,85A71.2,71.2,0,0,1,690,79.84q-14.29-6.9-14.29-20,0-11,9.26-18.37t23.55-7.38q15.24,0,24.62,7.54a23.92,23.92,0,0,1,9.38,19.55H723.42A11.75,11.75,0,0,0,719.34,52q-4.08-3.65-10.84-3.65a16.88,16.88,0,0,0-10.24,2.91,9.15,9.15,0,0,0-4,7.77A7.73,7.73,0,0,0,698,65.87q3.69,2.43,14.92,4.9t17.63,5.89A24.89,24.89,0,0,1,740,84.87a20.87,20.87,0,0,1,3.11,11.61q0,11.47-9.5,18.57t-24.89,7.11a44,44,0,0,1-18.61-3.77A30.55,30.55,0,0,1,677.42,108a24.48,24.48,0,0,1-4.56-14.2h18.53q.39,6.75,5.1,10.4T709,107.87q7.53,0,11.46-2.87A8.88,8.88,0,0,0,724.36,97.51Z"/><path class="cls-3" d="M807.17,112.27q-8.4,9.89-23.86,9.89-13.83,0-20.93-8.09t-7.1-23.39v-55h19.08v54.8q0,16.17,13.42,16.17,13.89,0,18.76-10v-61h19.08v85h-18Z"/><path class="cls-3" d="M841.07,13.58a10.12,10.12,0,0,1,2.79-7.3q2.77-2.9,8-2.9t8,2.9a10,10,0,0,1,2.83,7.3,9.82,9.82,0,0,1-2.83,7.19q-2.82,2.86-8,2.86t-8-2.86A9.91,9.91,0,0,1,841.07,13.58Zm20.25,107H842.25V35.64h19.07Z"/><path class="cls-3" d="M902,15V35.64h15V49.77H902V97.19q0,4.88,1.92,7t6.87,2.16a29,29,0,0,0,6.67-.79v14.76a47.12,47.12,0,0,1-12.56,1.81q-22,0-22-24.26V49.77h-14V35.64h14V15Z"/><path class="cls-3" d="M964.92,122.16q-18.13,0-29.4-11.43T924.26,80.31V78a51,51,0,0,1,4.9-22.73,37.34,37.34,0,0,1,13.78-15.58,36.39,36.39,0,0,1,19.78-5.58q17.35,0,26.81,11.07T999,76.47v7.69h-55.5q.87,10.52,7,16.64a21,21,0,0,0,15.5,6.13q13.11,0,21.36-10.6l10.28,9.81A34.3,34.3,0,0,1,984,118,42.65,42.65,0,0,1,964.92,122.16Zm-2.27-72.78A16,16,0,0,0,950,54.88q-4.83,5.49-6.17,15.31h36.35V68.77q-.63-9.57-5.1-14.48T962.65,49.38Z"/></g></g></svg>