<?xml version="1.0" encoding="utf-8"?>
<svg version="1.1" id="Layer_1" xmlns="http://www.w3.org/2000/svg" xmlns:xlink="http://www.w3.org/1999/xlink" x="0px" y="0px"
	 viewBox="0 0 900 230" style="enable-background:new 0 0 900 230;" xml:space="preserve">
<style type="text/css">
	.st0{fill:#B7E3F8;}
	.st1{fill:#114D89;}
	.st2{fill:url(#SVGID_1_);}
	.st3{fill:url(#SVGID_2_);}
	.st4{fill:url(#SVGID_3_);}
	.st5{fill:#EEBB72;}
	.st6{fill:#A87D50;}
	.st7{fill:#8A5E3C;}
	.st8{fill:url(#SVGID_4_);}
	.st9{fill:#92B153;}
	.st10{fill:url(#SVGID_5_);}
	.st11{fill:url(#SVGID_6_);}
	.st12{fill:url(#SVGID_7_);}
	.st13{fill:#EDBA72;}
	.st14{fill:url(#SVGID_8_);}
	.st15{fill:url(#SVGID_9_);}
	.st16{fill:url(#SVGID_10_);}
	.st17{fill:url(#SVGID_11_);}
	.st18{fill:url(#SVGID_12_);}
	.st19{fill:#114E89;}
	.st20{fill:#90AF52;}
	.st21{fill:#FFFFFF;}
	.st22{fill:url(#SVGID_13_);}
	.st23{fill:url(#SVGID_14_);}
	.st24{fill:url(#SVGID_15_);}
	.st25{fill:url(#SVGID_16_);}
	.st26{fill:url(#SVGID_17_);}
	.st27{fill:url(#SVGID_18_);}
	.st28{fill:url(#SVGID_19_);}
	.st29{fill:url(#SVGID_20_);}
	.st30{fill:url(#SVGID_21_);}
	.st31{fill:url(#SVGID_22_);}
	.st32{fill:url(#SVGID_23_);}
	.st33{fill:url(#SVGID_24_);}
</style>
<g>
	<g>
		<linearGradient id="SVGID_1_" gradientUnits="userSpaceOnUse" x1="95.7689" y1="114.391" x2="95.7689" y2="10.0593">
			<stop  offset="0" style="stop-color:#B7E5F9"/>
			<stop  offset="1" style="stop-color:#346FB5"/>
		</linearGradient>
		<path class="st2" d="M95.8,24.9C56.7,24.9,25,56.5,25,95.6c0,51.4,70.8,109.5,70.8,109.5s70.8-58.1,70.8-109.5
			C166.5,56.5,134.9,24.9,95.8,24.9z M95.8,129.6c-18.8,0-34-15.2-34-34s15.2-34,34-34s34,15.2,34,34S114.5,129.6,95.8,129.6z"/>
		<linearGradient id="SVGID_2_" gradientUnits="userSpaceOnUse" x1="95.7689" y1="149.4439" x2="95.7689" y2="129.2915">
			<stop  offset="0" style="stop-color:#5080C1"/>
			<stop  offset="1" style="stop-color:#124C87"/>
		</linearGradient>
		<path class="st3" d="M33.7,129.6c18.9,40,62.1,75.5,62.1,75.5s43.2-35.5,62.1-75.5H33.7z"/>
		<linearGradient id="SVGID_3_" gradientUnits="userSpaceOnUse" x1="145.3039" y1="169.7245" x2="145.3039" y2="112.2441">
			<stop  offset="0" style="stop-color:#5080C1"/>
			<stop  offset="1" style="stop-color:#124C87"/>
		</linearGradient>
		<path class="st4" d="M151.3,99.1h-2l-0.2-3.8h0.5v-1.1h-0.5v-4.1h0.5v-0.8l-3.3-1.3c0.1-0.1,0.1-0.3,0.1-0.4
			c0-0.4-0.2-0.8-0.6-0.9l-0.5-5.2l-0.5,5.2c-0.3,0.2-0.6,0.5-0.6,0.9c0,0.1,0,0.3,0.1,0.4l-3.3,1.3v0.8h0.5v4.1H141v1.1h0.5
			l-0.2,3.8h-2v1.1l1.8,1.4l-1.2,18h5.3h5.3l-1.2-18l1.8-1.4V99.1z M144.4,108.5h-1.8v-2h1.8V108.5z M147.5,98.1h-1.8v-2h1.8V98.1z
			 M147.7,94.2H143v-4.1h4.7V94.2z"/>
		<path class="st5" d="M63.7,173.6c6.7,7.6,13.2,14.2,18.6,19.4l24-12.7l-1.1-35.1l-15.8-15c0,0-13.2,6-20.5,7.2
			c-7.3,1.3-8.7,6.6-6.4,8.5c2.3,1.9-0.1,1.6-4.6,4.3c-1.2,0.7-2.1,1.5-3,2.3c-1.2,1.2-1.3,3.2-0.3,4.6c0,0,0,0,0,0
			c0.5,0.7,1.2,1.2,2.1,1.4c4.2,1,9.8,2.7,9.2,4.3c-0.9,2.4,0.9,3.3,3,5.3C69.5,168.9,66.2,171.5,63.7,173.6z"/>
		<path class="st6" d="M156.9,122.5l-31.6-3.1h-12.9l-7.8,0.9l-3.3-0.9c0,0,0.7,2.2,0.4,3c-0.4,0.9-1.6,2.3-2.3,2.8
			c-0.7,0.5-6.7,3-8.4,3.4c-1.7,0.4-3.9,1.2-5.2,2.3c-1.2,1.1-4.5,1.9-6,4c-1.5,2.1-5.5,3.2-6.4,5s-6.2,5.5-6.2,5.5l6.1-0.4
			c0,0-2.4,2.1-2.8,3.4c-0.4,1.2-2.4,3.2-2.7,3.4c-0.3,0.1-7.6,3.7-7.6,3.7s13.5-0.7,15-0.8c1.5-0.1,5.4-0.3,6.9-0.7
			c1.5-0.4,8.6-0.4,8.6-0.4l-6.2,4.3l-4.5,2.4l-7.6,5c0,0,11.1-1.1,14.1-1.2c3-0.1,4.1-0.3,7.4-0.1c0,0-9.6,5.5-10.6,6
			c-1,0.5-8.4,3.5-8.4,3.5l-9,2.6c15.7,17.5,29.9,29.2,29.9,29.2s42.7-35,61.7-74.8c0.4-0.7,0.7-1.5,1-2.2c0.2-0.5,0.4-1,0.6-1.4
			c0.4-1,0.8-2,1.2-2.9L156.9,122.5z"/>
		<g>
			<path class="st7" d="M133.9,133.2l4.3-2.6l5.4-6.2l-15.4-1.8l2.9,2.3l0.5,2.1l-6.3,2.9l-8.7,2.9l8.2-0.7l-2,2.3l-4.9,2.4
				l-6.4,1.1L96,142.2l9.1-1.1l-4.9,2.3l-7.6,2.8l-9.3,4.2l-8.8,3.9c0.2,0,0.4,0,0.5,0c1.5-0.1,5.4-0.3,6.9-0.7
				c1.5-0.4,8.6-0.4,8.6-0.4l8.4-5l6.2-3.1l6.7-1.2l7-3.6l9.8-4.4l-0.3,2.5l-2.5,2.7l-8.1,4.4l10.1,0.3l-9.7,3.8l-7.7,1.9l-14.8,3.3
				h6.8l9.8,0.9c0,0-9.9,3.1-10.1,3.2c-0.3,0.1-8.2,2-8.2,2l-21.5,4.2c0,0,11.1-1.1,14.1-1.2c3-0.1,4.1-0.3,7.4-0.1l12.8-2.4
				l14.7-3.9l12.6-2.1l11.1-6.8l3.4-1.8c2.2-3.5,4.3-7,6.3-10.6L133.9,133.2z"/>
			<path class="st7" d="M126,167l11.1-4.6c0.5-0.7,1.1-1.4,1.6-2.1c-8.8,2-23.4,5.7-28,9.3L126,167z"/>
			<polygon class="st7" points="89.3,132.8 88,131.7 84,134.6 			"/>
			<polygon class="st7" points="103.4,175.9 96,173.7 80.7,178.1 93,178.1 			"/>
			<path class="st7" d="M129.8,171.3l-7.9,2.4l-16.3,6.9l14.2-2.7l-11.2,5.9L93,189.8l-12.3,1.6c5.5,5.5,11.6,10.6,15.1,13.8
				C100.2,201.4,115.5,187.9,129.8,171.3z"/>
			<polygon class="st7" points="113.7,146.5 103.4,150.3 113,148.4 			"/>
			<polygon class="st7" points="88,143.7 95.4,140.6 98,137.5 93.3,139.9 			"/>
			<polygon class="st7" points="73.3,150.7 68.8,153.2 73.6,152.2 78.8,147.6 84.5,145.2 78,146.5 			"/>
			<polygon class="st7" points="104.4,123.3 97.7,128 101.7,126.7 			"/>
			<polygon class="st7" points="78.8,141.9 82,141.9 84.5,139.6 88,138.2 90.7,137.1 93.5,135.2 97.7,134.2 103.3,132 110.5,129.9 
				121.2,127.5 123.5,125.7 124.8,121.5 113.7,120.3 108.4,120.9 111.8,122.4 107.2,125.7 103.1,127.3 108.3,127.1 114.5,125.2 
				108.5,128.5 100.8,129.2 90,131.3 95.5,131.6 88,134.7 81,138.4 75.6,141.4 67.1,145.2 73.1,144.8 			"/>
			<polygon class="st7" points="111.7,134.4 112.4,132.8 105.6,135.8 			"/>
		</g>
		<linearGradient id="SVGID_4_" gradientUnits="userSpaceOnUse" x1="101.2512" y1="126.3442" x2="162.3306" y2="126.3442">
			<stop  offset="0" style="stop-color:#91AF54"/>
			<stop  offset="1" style="stop-color:#749251"/>
		</linearGradient>
		<path class="st8" d="M156.4,119.3c-0.9-0.3-2.8-0.5-5.6-0.6c-2.8-0.1-8.8-0.5-11.4-0.6c-2.6-0.1-6.1-0.3-9.6-1.2
			c-3.6-0.9-6.8-1-9.6-1c-2.8,0-4.5-0.4-6.1,0.4c-1.6,0.9-2.6,1.6-5.5,2c-3,0.4-7.2,1.1-7.2,1.1s0.4,0.7,1.3,1.3
			c0.9,0.6,4.8,0.8,6.6,0.7c1.8-0.1,2.4-0.7,5.5,0.4c3.1,1,7.7,0.6,10.3,0.5c2.6-0.1,0.7-0.3,5.3,0.8c4.5,1.1,8.3,1.6,8.3,1.6
			s5.3,1.6,5.8,1.6c0.4,0,6.4,1.2,6.4,1.2s-6.2,1.7-7.2,1.8c-0.9,0.1-11.4,1.2-11.4,1.2l-3.7,0.7c0,0-0.3,0.9,0.6,1.3
			c0.9,0.4,1.8,0.1,4.3,1.5c2.5,1.4,2.6,0.1,9.2,1.2c6.1,0.9,9,0.8,11.7,1.7c3.3-6,6.1-12.1,8.2-18.3
			C160,119,156.9,119.5,156.4,119.3z"/>
	</g>
	<g>
		<path class="st1" d="M204.4,80.8H222l26.8,52l26.5-52H293v80.7h-14.2v-57.9l-25.1,49.6h-9.9l-25.3-49.6v57.9h-14.1V80.8z"/>
		<path class="st1" d="M342.9,161.5V154c-2.2,2.7-4.9,4.7-8.3,6.1c-3.4,1.4-7.3,2.1-11.6,2.1c-4.3,0-8.1-0.8-11.4-2.5
			c-3.3-1.7-5.8-3.9-7.6-6.9c-1.8-2.9-2.7-6.2-2.7-9.8c0-5.8,2-10.3,6.1-13.6c4.1-3.3,9.8-4.9,17.3-5h18v-1.6c0-3.6-1.2-6.4-3.6-8.4
			c-2.4-2-5.8-3-10.4-3c-5.8,0-12,1.9-18.3,5.8l-5.4-10.4c4.8-2.7,9.2-4.6,13.2-5.8c4-1.2,8.6-1.8,13.9-1.8c8,0,14.2,1.9,18.6,5.8
			c4.4,3.8,6.7,9.2,6.7,16.1l0.1,40.4H342.9z M337.6,147.6c3.1-2,4.8-4.6,5.2-7.6v-5.5h-15.6c-4,0-6.9,0.6-8.8,1.8
			c-1.9,1.2-2.8,3.1-2.8,5.8c0,2.6,1,4.7,2.9,6.2c2,1.5,4.6,2.3,8,2.3C330.8,150.7,334.5,149.7,337.6,147.6z"/>
		<path class="st1" d="M392.2,102.5c3.6-2.1,7.7-3.2,12.5-3.3v14.5c-6.4-0.4-11.5,1.1-15.3,4.4c-3.8,3.3-5.7,7.9-5.7,13.6v29.8h-15
			V99.8h15v11.9C385.8,107.7,388.6,104.7,392.2,102.5z"/>
		<path class="st1" d="M445.5,157.7c-4.9,3-10.1,4.5-15.5,4.5c-5.3,0-9.6-1.6-13-4.7c-3.4-3.1-5.1-7.7-5.1-13.8v-30.4h-8.6l-0.1-11
			h8.8v-17h14.9v17h17.6v11h-17.6v27.8c0,2.8,0.5,4.9,1.6,6.1c1.1,1.2,2.7,1.8,4.8,1.8c2.3,0,5.2-0.8,8.8-2.5L445.5,157.7z"/>
		<path class="st1" d="M506.1,105.7c4.1,4.3,6.1,10.1,6.1,17.4v38.5h-15.1v-34.1c0-4.3-1.2-7.7-3.7-10.2c-2.5-2.5-5.8-3.7-10-3.7
			c-5,0.1-9,1.8-11.9,5.1c-2.9,3.3-4.4,7.5-4.4,12.7v30.3h-15V76h15v35.6c4.2-8.1,11.6-12.2,22.3-12.3
			C496.4,99.3,502,101.4,506.1,105.7z"/>
		<path class="st1" d="M559.7,161.5V154c-2.2,2.7-4.9,4.7-8.3,6.1c-3.4,1.4-7.3,2.1-11.6,2.1c-4.3,0-8.1-0.8-11.4-2.5
			s-5.8-3.9-7.6-6.9c-1.8-2.9-2.7-6.2-2.7-9.8c0-5.8,2-10.3,6.1-13.6c4.1-3.3,9.8-4.9,17.3-5h18v-1.6c0-3.6-1.2-6.4-3.6-8.4
			c-2.4-2-5.8-3-10.4-3c-5.8,0-12,1.9-18.3,5.8l-5.4-10.4c4.8-2.7,9.2-4.6,13.2-5.8c4-1.2,8.6-1.8,13.9-1.8c8,0,14.2,1.9,18.6,5.8
			c4.4,3.8,6.7,9.2,6.7,16.1l0.1,40.4H559.7z M554.4,147.6c3.1-2,4.8-4.6,5.2-7.6v-5.5H544c-4,0-6.9,0.6-8.8,1.8
			c-1.9,1.2-2.8,3.1-2.8,5.8c0,2.6,1,4.7,2.9,6.2c2,1.5,4.6,2.3,8,2.3C547.6,150.7,551.3,149.7,554.4,147.6z"/>
		<path class="st1" d="M594.6,78.1c1.5,1.5,2.2,3.4,2.2,5.9c0,1.2-0.2,2.2-0.5,3.1c-0.3,0.9-0.9,2-1.6,3.3l-7.3,14H580l4.8-13.7
			c-2.3-1.5-3.5-3.8-3.5-6.7c0-2.4,0.7-4.3,2.2-5.8c1.5-1.5,3.3-2.2,5.5-2.2C591.3,76,593.1,76.7,594.6,78.1z"/>
		<path class="st1" d="M632.5,112.4c-3.2-1-6.1-1.5-8.8-1.5c-2.5,0-4.6,0.4-6.1,1.3c-1.5,0.9-2.2,2.2-2.2,4.1c0,1.9,0.9,3.4,2.8,4.4
			c1.9,1,4.9,2.1,8.9,3.3c4.3,1.3,7.8,2.6,10.6,3.9c2.8,1.3,5.2,3.2,7.2,5.7c2,2.5,3.1,5.8,3.1,9.9c0,6-2.3,10.6-6.9,13.8
			c-4.6,3.2-10.4,4.8-17.4,4.8c-4.8,0-9.4-0.8-14-2.2c-4.5-1.5-8.4-3.6-11.5-6.4l5.2-10.5c2.8,2.4,6.1,4.2,9.9,5.6
			c3.8,1.3,7.5,2,11,2c2.8,0,5-0.5,6.6-1.4c1.7-1,2.5-2.4,2.5-4.3c0-2.2-1-3.8-2.9-4.8c-1.9-1.1-5-2.3-9.3-3.6
			c-4.2-1.2-7.5-2.4-10.1-3.6c-2.6-1.2-4.9-3-6.8-5.4s-2.9-5.6-2.9-9.5c0-6.1,2.2-10.7,6.6-13.9c4.4-3.2,10-4.8,16.7-4.8
			c4.1,0,8.1,0.6,12.1,1.7c4,1.2,7.5,2.8,10.6,4.8l-5.4,10.8C638.8,114.8,635.7,113.4,632.5,112.4z"/>
		<path class="st9" d="M669,80.9h8.5l28.7,71.8l28.6-71.8h8.4l-33.1,80.6h-8.3L669,80.9z"/>
		<path class="st9" d="M757.4,79.8c1,1,1.5,2.3,1.5,3.9s-0.5,2.8-1.6,3.9c-1,1.1-2.3,1.6-3.7,1.6c-1.5,0-2.8-0.5-3.9-1.6
			c-1-1.1-1.6-2.4-1.6-3.9s0.5-2.8,1.6-3.9s2.3-1.6,3.9-1.6C755.1,78.3,756.4,78.8,757.4,79.8z M749.6,101.1h7.7v60.4h-7.7V101.1z"
			/>
		<path class="st9" d="M797.6,108.4c-2.8-0.8-5.7-1.2-8.4-1.2c-3.8,0-6.9,0.7-9.3,2.2c-2.3,1.5-3.5,3.7-3.5,6.7
			c0,2.1,0.6,3.8,1.9,5.1c1.3,1.3,2.8,2.4,4.7,3.2c1.9,0.8,4.5,1.7,7.9,2.7c4.2,1.2,7.5,2.4,10.1,3.6c2.6,1.2,4.8,2.9,6.7,5.2
			c1.8,2.3,2.8,5.2,2.8,8.9c0,5.5-2.1,9.6-6.2,12.5c-4.2,2.9-9.3,4.3-15.6,4.3c-4.4,0-8.6-0.7-12.7-2.2c-4.1-1.5-7.5-3.5-10.3-6.2
			l3.1-5.5c2.6,2.4,5.7,4.3,9.3,5.7c3.6,1.4,7.2,2.1,10.9,2.1c4.1,0,7.4-0.8,10-2.5c2.6-1.7,3.9-4.2,3.9-7.4c0-2.2-0.7-4.1-2-5.5
			c-1.3-1.4-2.9-2.5-4.9-3.3c-2-0.8-4.7-1.7-8.1-2.8c-4.1-1.2-7.4-2.4-9.9-3.6c-2.5-1.2-4.7-2.8-6.5-5c-1.8-2.2-2.7-5.1-2.7-8.6
			c0-5.3,2-9.3,5.9-12c4-2.7,8.9-4,14.8-4c3.5,0,6.8,0.5,10,1.4c3.2,0.9,6.1,2.2,8.6,3.8l-3,5.9C803,110.4,800.5,109.2,797.6,108.4z
			"/>
		<path class="st9" d="M827.8,79.8c1,1,1.5,2.3,1.5,3.9s-0.5,2.8-1.6,3.9c-1,1.1-2.3,1.6-3.7,1.6c-1.5,0-2.8-0.5-3.9-1.6
			c-1-1.1-1.6-2.4-1.6-3.9s0.5-2.8,1.6-3.9c1-1,2.3-1.6,3.9-1.6C825.6,78.3,826.8,78.8,827.8,79.8z M820.1,101.1h7.7v60.4h-7.7
			V101.1z"/>
		<path class="st9" d="M875,157.4c-4.2,2.8-8.6,4.3-13.4,4.5c-4.6,0-8.3-1.4-11-4.3c-2.7-2.8-4-7.1-4-12.8v-36H838l-0.1-6h8.8V87.3
			h7.7v15.6l19.6-0.1v6.1h-19.6v34.7c0,7.5,2.8,11.2,8.3,11.2c3.1,0,6.4-1.1,10-3.2L875,157.4z"/>
	</g>
</g>
</svg>
